<?xml version="1.0" standalone="no"?>
<!DOCTYPE svg PUBLIC "-//W3C//DTD SVG 20010904//EN"
 "http://www.w3.org/TR/2001/REC-SVG-20010904/DTD/svg10.dtd">
<svg version="1.0" xmlns="http://www.w3.org/2000/svg"
 width="1024.000000pt" height="1024.000000pt" viewBox="0 0 1024.000000 1024.000000"
 preserveAspectRatio="xMidYMid meet">

<g transform="translate(0.000000,1024.000000) scale(0.100000,-0.100000)"
fill="#000000" stroke="none">
<path d="M1583 6253 c185 -2 489 -2 675 0 185 1 33 2 -338 2 -371 0 -523 -1
-337 -2z"/>
<path d="M1198 6243 c7 -3 16 -2 19 1 4 3 -2 6 -13 5 -11 0 -14 -3 -6 -6z"/>
<path d="M2643 6243 c9 -2 23 -2 30 0 6 3 -1 5 -18 5 -16 0 -22 -2 -12 -5z"/>
<path d="M1140 6225 c-14 -8 -20 -14 -15 -14 6 0 21 6 35 14 14 8 21 14 15 14
-5 0 -21 -6 -35 -14z"/>
<path d="M2770 6210 c8 -5 20 -10 25 -10 6 0 3 5 -5 10 -8 5 -19 10 -25 10 -5
0 -3 -5 5 -10z"/>
<path d="M1037 6150 c-20 -21 -45 -57 -57 -79 -31 -62 -23 -63 11 -1 16 30 44
70 61 88 18 17 29 32 26 32 -3 0 -22 -18 -41 -40z"/>
<path d="M2850 6177 c0 -3 12 -12 26 -22 15 -9 23 -12 20 -6 -7 11 -46 35 -46
28z"/>
<path d="M1608 6143 c184 -2 481 -2 660 0 180 1 30 2 -333 2 -363 0 -510 -1
-327 -2z"/>
<path d="M1238 6133 c7 -3 16 -2 19 1 4 3 -2 6 -13 5 -11 0 -14 -3 -6 -6z"/>
<path d="M2925 6120 c10 -11 20 -20 23 -20 3 0 -3 9 -13 20 -10 11 -20 20 -23
20 -3 0 3 -9 13 -20z"/>
<path d="M2678 6123 c7 -3 16 -2 19 1 4 3 -2 6 -13 5 -11 0 -14 -3 -6 -6z"/>
<path d="M1148 6095 c-33 -22 -78 -80 -78 -101 0 -4 13 13 30 39 16 26 33 47
37 47 9 0 61 39 53 40 -3 0 -22 -11 -42 -25z"/>
<path d="M2731 6106 c2 -2 15 -9 29 -15 24 -11 24 -11 6 3 -16 13 -49 24 -35
12z"/>
<path d="M2961 6087 c2 -1 15 -11 29 -22 l25 -20 -19 23 c-11 12 -24 22 -29
22 -6 0 -8 -1 -6 -3z"/>
<path d="M2790 6078 c8 -10 94 -73 110 -82 23 -13 -50 47 -84 68 -17 11 -29
17 -26 14z"/>
<path d="M3040 6003 c18 -24 35 -43 37 -43 7 0 -35 56 -54 71 -9 8 -2 -5 17
-28z"/>
<path d="M1983 6003 c15 -2 39 -2 55 0 15 2 2 4 -28 4 -30 0 -43 -2 -27 -4z"/>
<path d="M2093 6003 c9 -2 25 -2 35 0 9 3 1 5 -18 5 -19 0 -27 -2 -17 -5z"/>
<path d="M951 5984 c0 -11 3 -14 6 -6 3 7 2 16 -1 19 -3 4 -6 -2 -5 -13z"/>
<path d="M1888 5993 c6 -2 18 -2 25 0 6 3 1 5 -13 5 -14 0 -19 -2 -12 -5z"/>
<path d="M2178 5993 c7 -3 16 -2 19 1 4 3 -2 6 -13 5 -11 0 -14 -3 -6 -6z"/>
<path d="M1848 5983 c7 -3 16 -2 19 1 4 3 -2 6 -13 5 -11 0 -14 -3 -6 -6z"/>
<path d="M1061 5964 c0 -11 3 -14 6 -6 3 7 2 16 -1 19 -3 4 -6 -2 -5 -13z"/>
<path d="M2945 5940 c47 -55 48 -56 37 -35 -6 11 -23 31 -39 45 l-28 25 30
-35z"/>
<path d="M1740 5950 c-8 -5 -10 -10 -5 -10 6 0 17 5 25 10 8 5 11 10 5 10 -5
0 -17 -5 -25 -10z"/>
<path d="M2398 5916 c35 -19 77 -46 95 -60 18 -14 50 -40 72 -57 37 -29 37
-28 -5 11 -54 50 -111 90 -167 119 -68 34 -64 24 5 -13z"/>
<path d="M1675 5920 c-3 -6 1 -7 9 -4 18 7 21 14 7 14 -6 0 -13 -4 -16 -10z"/>
<path d="M1055 5320 c0 -333 1 -469 2 -303 2 167 2 439 0 605 -1 167 -2 31 -2
-302z"/>
<path d="M1605 5876 c-28 -18 -57 -42 -65 -51 -8 -10 5 -3 30 16 25 19 57 42
70 51 14 9 23 17 20 17 -3 1 -28 -14 -55 -33z"/>
<path d="M1993 5893 c26 -2 68 -2 95 0 26 2 4 3 -48 3 -52 0 -74 -1 -47 -3z"/>
<path d="M1908 5883 c6 -2 18 -2 25 0 6 3 1 5 -13 5 -14 0 -19 -2 -12 -5z"/>
<path d="M2158 5883 c7 -3 16 -2 19 1 4 3 -2 6 -13 5 -11 0 -14 -3 -6 -6z"/>
<path d="M1868 5873 c7 -3 16 -2 19 1 4 3 -2 6 -13 5 -11 0 -14 -3 -6 -6z"/>
<path d="M2256 5856 c34 -13 76 -32 94 -41 18 -9 29 -12 26 -7 -7 12 -149 72
-168 72 -7 -1 14 -12 48 -24z"/>
<path d="M3007 5845 c9 -19 18 -33 21 -31 4 5 -26 66 -33 66 -3 0 3 -16 12
-35z"/>
<path d="M3120 5875 c0 -5 5 -17 10 -25 5 -8 10 -10 10 -5 0 6 -5 17 -10 25
-5 8 -10 11 -10 5z"/>
<path d="M1790 5850 c-8 -5 -10 -10 -5 -10 6 0 17 5 25 10 8 5 11 10 5 10 -5
0 -17 -5 -25 -10z"/>
<path d="M1489 5783 l-24 -28 28 24 c25 23 32 31 24 31 -2 0 -14 -12 -28 -27z"/>
<path d="M1662 5780 c-23 -17 -42 -33 -42 -36 0 -4 56 34 85 58 23 20 -6 5
-43 -22z"/>
<path d="M2420 5774 c67 -54 140 -137 172 -200 18 -34 34 -61 36 -59 2 1 -8
26 -22 53 -35 70 -113 161 -172 200 -33 22 -37 24 -14 6z"/>
<path d="M3041 5764 c0 -11 3 -14 6 -6 3 7 2 16 -1 19 -3 4 -6 -2 -5 -13z"/>
<path d="M2630 5723 c18 -24 35 -43 37 -43 7 0 -35 56 -54 71 -9 8 -2 -5 17
-28z"/>
<path d="M3162 5740 c0 -14 2 -19 5 -12 2 6 2 18 0 25 -3 6 -5 1 -5 -13z"/>
<path d="M1439 5723 l-24 -28 28 24 c25 23 32 31 24 31 -2 0 -14 -12 -28 -27z"/>
<path d="M1559 5693 c-45 -48 -91 -106 -58 -73 32 31 112 120 107 120 -2 0
-24 -21 -49 -47z"/>
<path d="M3051 5724 c0 -11 3 -14 6 -6 3 7 2 16 -1 19 -3 4 -6 -2 -5 -13z"/>
<path d="M1893 5690 c51 -9 89 -29 120 -64 14 -16 14 -14 -2 10 -23 36 -85 65
-134 63 -26 -1 -23 -3 16 -9z"/>
<path d="M3175 5020 c0 -377 1 -531 2 -342 2 188 2 496 0 685 -1 188 -2 34 -2
-343z"/>
<path d="M1399 5673 c-13 -16 -12 -17 4 -4 9 7 17 15 17 17 0 8 -8 3 -21 -13z"/>
<path d="M1782 5664 c-17 -14 -37 -35 -43 -47 -8 -16 -5 -15 13 6 12 15 37 36
53 47 17 11 26 20 20 20 -5 0 -25 -12 -43 -26z"/>
<path d="M3065 5015 c0 -374 1 -526 2 -337 2 189 2 495 0 680 -1 185 -2 31 -2
-343z"/>
<path d="M1370 5630 c-6 -11 -8 -20 -6 -20 3 0 10 9 16 20 6 11 8 20 6 20 -3
0 -10 -9 -16 -20z"/>
<path d="M2686 5637 c3 -10 9 -15 12 -12 3 3 0 11 -7 18 -10 9 -11 8 -5 -6z"/>
<path d="M2706 5597 c3 -10 9 -15 12 -12 3 3 0 11 -7 18 -10 9 -11 8 -5 -6z"/>
<path d="M1470 5580 c-6 -11 -8 -20 -6 -20 3 0 10 9 16 20 6 11 8 20 6 20 -3
0 -10 -9 -16 -20z"/>
<path d="M1835 5575 c-14 -13 -25 -35 -25 -47 0 -26 25 -68 41 -68 5 0 0 9
-11 20 -38 38 -20 93 35 109 25 8 26 9 7 10 -13 1 -34 -10 -47 -24z"/>
<path d="M1927 5566 c20 -26 27 -28 17 -3 -3 8 -12 18 -20 21 -11 4 -10 0 3
-18z"/>
<path d="M2041 5564 c0 -11 3 -14 6 -6 3 7 2 16 -1 19 -3 4 -6 -2 -5 -13z"/>
<path d="M1712 5530 c0 -19 2 -27 5 -17 2 9 2 25 0 35 -3 9 -5 1 -5 -18z"/>
<path d="M2270 5528 c-18 -13 -40 -34 -48 -48 -11 -17 -6 -15 14 8 16 18 47
39 69 47 25 9 32 14 19 15 -12 0 -36 -10 -54 -22z"/>
<path d="M2378 5543 c6 -2 18 -2 25 0 6 3 1 5 -13 5 -14 0 -19 -2 -12 -5z"/>
<path d="M1311 5509 c-6 -18 -11 -37 -10 -43 0 -6 7 7 15 28 8 22 12 41 10 43
-2 2 -9 -10 -15 -28z"/>
<path d="M2420 5536 c0 -2 7 -7 16 -10 8 -3 12 -2 9 4 -6 10 -25 14 -25 6z"/>
<path d="M2731 5535 c1 -19 18 -51 18 -35 0 8 -4 22 -9 30 -5 8 -9 11 -9 5z"/>
<path d="M1937 5500 c-3 -11 -20 -27 -39 -35 -24 -10 -28 -14 -12 -15 24 0 64
34 64 55 0 21 -7 18 -13 -5z"/>
<path d="M2481 5490 c29 -45 29 -45 29 -34 0 5 -12 23 -26 39 l-26 30 23 -35z"/>
<path d="M1426 5495 c-9 -26 -7 -32 5 -12 6 10 9 21 6 23 -2 3 -7 -2 -11 -11z"/>
<path d="M2042 5490 c0 -14 2 -19 5 -12 2 6 2 18 0 25 -3 6 -5 1 -5 -13z"/>
<path d="M1721 5479 c-1 -8 6 -24 15 -35 15 -19 15 -19 6 1 -5 11 -12 27 -15
35 -5 13 -6 13 -6 -1z"/>
<path d="M2752 5460 c0 -14 2 -19 5 -12 2 6 2 18 0 25 -3 6 -5 1 -5 -13z"/>
<path d="M2642 5455 c0 -11 4 -33 8 -50 7 -27 8 -27 8 -5 0 14 -4 36 -8 50 -6
20 -8 21 -8 5z"/>
<path d="M1406 5445 c-9 -26 -7 -32 5 -12 6 10 9 21 6 23 -2 3 -7 -2 -11 -11z"/>
<path d="M2018 5430 c-9 -16 -32 -39 -50 -50 -18 -11 -28 -20 -21 -20 15 0 71
47 84 72 17 32 5 30 -13 -2z"/>
<path d="M1286 5424 c-4 -14 -5 -28 -3 -31 3 -2 8 8 11 23 4 14 5 28 3 31 -3
2 -8 -8 -11 -23z"/>
<path d="M2310 5430 c-11 -11 -20 -32 -19 -47 1 -27 1 -26 9 5 10 41 11 42 52
52 31 8 32 8 6 9 -16 1 -37 -8 -48 -19z"/>
<path d="M2402 5425 c9 -11 18 -31 21 -45 l4 -25 2 26 c0 16 -8 33 -21 45 -23
19 -23 19 -6 -1z"/>
<path d="M2762 5405 c0 -16 2 -22 5 -12 2 9 2 23 0 30 -3 6 -5 -1 -5 -18z"/>
<path d="M2193 5380 c0 -25 2 -35 4 -22 2 12 2 32 0 45 -2 12 -4 2 -4 -23z"/>
<path d="M2523 5375 c0 -22 2 -30 4 -17 2 12 2 30 0 40 -3 9 -5 -1 -4 -23z"/>
<path d="M1455 5098 c-165 -167 -316 -321 -335 -343 -45 -52 -55 -62 320 318
178 180 322 327 319 327 -2 0 -139 -136 -304 -302z"/>
<path d="M1272 5345 c0 -16 2 -22 5 -12 2 9 2 23 0 30 -3 6 -5 -1 -5 -18z"/>
<path d="M1382 5330 c0 -19 2 -27 5 -17 2 9 2 25 0 35 -3 9 -5 1 -5 -18z"/>
<path d="M1893 5353 c9 -2 23 -2 30 0 6 3 -1 5 -18 5 -16 0 -22 -2 -12 -5z"/>
<path d="M2663 5320 c0 -25 2 -35 4 -22 2 12 2 32 0 45 -2 12 -4 2 -4 -23z"/>
<path d="M2761 5344 c0 -11 3 -14 6 -6 3 7 2 16 -1 19 -3 4 -6 -2 -5 -13z"/>
<path d="M2391 5330 c-13 -11 -19 -20 -14 -20 6 0 18 9 28 20 23 25 17 25 -14
0z"/>
<path d="M2200 5325 c0 -5 5 -17 10 -25 5 -8 10 -10 10 -5 0 6 -5 17 -10 25
-5 8 -10 11 -10 5z"/>
<path d="M2320 5320 c8 -5 20 -10 25 -10 6 0 3 5 -5 10 -8 5 -19 10 -25 10 -5
0 -3 -5 5 -10z"/>
<path d="M2501 5303 c-10 -26 -10 -27 4 -9 8 11 15 23 15 28 0 15 -7 8 -19
-19z"/>
<path d="M1447 4932 c-358 -358 -388 -391 -384 -418 l4 -29 2 30 c1 25 61 90
388 417 214 214 386 388 383 388 -3 0 -180 -175 -393 -388z"/>
<path d="M1262 5253 c-2 -60 -1 -63 21 -62 16 1 17 3 5 6 -13 3 -18 18 -21 61
l-3 57 -2 -62z"/>
<path d="M2763 5245 c0 -38 2 -53 4 -32 2 20 2 52 0 70 -2 17 -4 1 -4 -38z"/>
<path d="M2100 5165 c-73 -73 -123 -115 -139 -118 l-26 -4 25 -2 c20 -1 51 25
145 119 66 66 117 120 115 120 -3 0 -57 -52 -120 -115z"/>
<path d="M2469 5253 c-13 -16 -12 -17 4 -4 9 7 17 15 17 17 0 8 -8 3 -21 -13z"/>
<path d="M2430 5230 c-9 -6 -10 -10 -3 -10 6 0 15 5 18 10 8 12 4 12 -15 0z"/>
<path d="M1370 5218 c0 -9 -6 -19 -12 -21 -10 -4 -10 -6 0 -6 14 -1 28 26 18
36 -3 4 -6 -1 -6 -9z"/>
<path d="M2388 5213 c7 -3 16 -2 19 1 4 3 -2 6 -13 5 -11 0 -14 -3 -6 -6z"/>
<path d="M2770 5166 c0 -11 30 -66 36 -66 2 0 -3 15 -12 33 -19 36 -24 44 -24
33z"/>
<path d="M2150 5053 l-95 -98 98 95 c90 88 102 100 94 100 -1 0 -45 -44 -97
-97z"/>
<path d="M2670 5125 c0 -11 90 -175 96 -175 3 0 -16 39 -42 88 -52 96 -54 99
-54 87z"/>
<path d="M2820 5070 c6 -11 13 -20 16 -20 2 0 0 9 -6 20 -6 11 -13 20 -16 20
-2 0 0 -9 6 -20z"/>
<path d="M1830 5025 c-37 -27 -70 -72 -70 -95 1 -8 7 -1 14 16 18 40 63 82
101 93 22 7 24 9 9 10 -11 1 -35 -10 -54 -24z"/>
<path d="M2855 5010 c9 -16 18 -30 21 -30 2 0 -2 14 -11 30 -9 17 -18 30 -21
30 -2 0 2 -13 11 -30z"/>
<path d="M1874 4928 c-19 -23 -19 -23 1 -6 11 9 34 18 50 21 l30 4 -31 2 c-21
1 -37 -6 -50 -21z"/>
<path d="M2891 4924 c0 -11 3 -14 6 -6 3 7 2 16 -1 19 -3 4 -6 -2 -5 -13z"/>
<path d="M2083 4875 c0 -27 2 -38 4 -22 2 15 2 37 0 50 -2 12 -4 0 -4 -28z"/>
<path d="M1752 4885 c0 -16 2 -22 5 -12 2 9 2 23 0 30 -3 6 -5 -1 -5 -18z"/>
<path d="M2777 4891 c-4 -17 -3 -21 5 -13 5 5 8 16 6 23 -3 8 -7 3 -11 -10z"/>
<path d="M1851 4884 c-1 -11 6 -29 15 -40 8 -10 12 -13 9 -6 -4 8 -11 26 -15
40 -7 22 -8 23 -9 6z"/>
<path d="M1966 4842 l-19 -27 24 22 c12 12 21 24 18 27 -2 2 -13 -8 -23 -22z"/>
<path d="M2735 4850 c-13 -6 -15 -9 -5 -9 8 0 22 4 30 9 18 12 2 12 -25 0z"/>
<path d="M2654 4826 c-3 -8 -4 -27 -1 -43 3 -24 4 -23 6 9 1 32 5 37 29 41
l27 4 -28 2 c-16 0 -30 -5 -33 -13z"/>
<path d="M2851 4797 c-29 -35 -30 -38 -7 -17 24 22 52 60 44 60 -2 0 -18 -19
-37 -43z"/>
<path d="M1898 4818 c6 -6 18 -8 28 -6 14 3 12 5 -9 10 -19 3 -25 2 -19 -4z"/>
<path d="M2066 4803 c-6 -14 -5 -15 5 -6 7 7 10 15 7 18 -3 3 -9 -2 -12 -12z"/>
<path d="M1625 4648 l-140 -143 143 140 c132 130 147 145 139 145 -1 0 -65
-64 -142 -142z"/>
<path d="M2016 4749 c-21 -16 -35 -29 -30 -29 6 0 25 13 44 30 45 37 37 37
-14 -1z"/>
<path d="M2764 4737 c-3 -8 -3 -54 -2 -103 l3 -89 5 103 c5 101 4 114 -6 89z"/>
<path d="M1855 4722 c-5 -4 -39 -39 -75 -77 l-65 -70 80 75 c44 41 81 76 84
78 2 1 0 2 -5 2 -5 0 -13 -4 -19 -8z"/>
<path d="M1908 4713 c12 -2 30 -2 40 0 9 3 -1 5 -23 4 -22 0 -30 -2 -17 -4z"/>
<path d="M2651 4704 c0 -11 3 -14 6 -6 3 7 2 16 -1 19 -3 4 -6 -2 -5 -13z"/>
<path d="M1060 4700 c-9 -6 -10 -10 -3 -10 6 0 15 5 18 10 8 12 4 12 -15 0z"/>
<path d="M2652 4600 c0 -19 2 -27 5 -17 2 9 2 25 0 35 -3 9 -5 1 -5 -18z"/>
<path d="M953 4525 c0 -22 2 -30 4 -17 2 12 2 30 0 40 -3 9 -5 -1 -4 -23z"/>
<path d="M2615 4522 c-22 -26 -24 -32 -9 -22 20 13 49 49 42 54 -2 2 -16 -13
-33 -32z"/>
<path d="M1609 4483 c-40 -43 -63 -73 -57 -73 2 0 26 25 52 55 54 63 57 73 5
18z"/>
<path d="M2736 4493 c-6 -14 -5 -15 5 -6 7 7 10 15 7 18 -3 3 -9 -2 -12 -12z"/>
<path d="M1469 4483 c-13 -16 -12 -17 4 -4 9 7 17 15 17 17 0 8 -8 3 -21 -13z"/>
<path d="M2358 4483 c7 -3 16 -2 19 1 4 3 -2 6 -13 5 -11 0 -14 -3 -6 -6z"/>
<path d="M2558 4483 c7 -3 16 -2 19 1 4 3 -2 6 -13 5 -11 0 -14 -3 -6 -6z"/>
<path d="M962 4460 c0 -14 2 -19 5 -12 2 6 2 18 0 25 -3 6 -5 1 -5 -13z"/>
<path d="M1071 4464 c0 -11 3 -14 6 -6 3 7 2 16 -1 19 -3 4 -6 -2 -5 -13z"/>
<path d="M2306 4471 c-4 -5 3 -7 14 -4 23 6 26 13 6 13 -8 0 -17 -4 -20 -9z"/>
<path d="M2694 4438 l-29 -33 33 29 c30 28 37 36 29 36 -2 0 -16 -15 -33 -32z"/>
<path d="M1445 4449 c-4 -6 -5 -12 -2 -15 2 -3 7 2 10 11 7 17 1 20 -8 4z"/>
<path d="M2262 4445 c-24 -18 -72 -94 -72 -116 0 -8 9 6 20 29 11 24 34 57 51
73 34 32 35 37 1 14z"/>
<path d="M1421 4374 c0 -11 3 -14 6 -6 3 7 2 16 -1 19 -3 4 -6 -2 -5 -13z"/>
<path d="M2503 4373 c9 -2 23 -2 30 0 6 3 -1 5 -18 5 -16 0 -22 -2 -12 -5z"/>
<path d="M2563 4373 c9 -2 23 -2 30 0 6 3 -1 5 -18 5 -16 0 -22 -2 -12 -5z"/>
<path d="M990 4364 c0 -11 59 -114 65 -114 3 0 -9 26 -27 58 -37 66 -38 68
-38 56z"/>
<path d="M1110 4361 c0 -6 4 -13 10 -16 6 -3 7 1 4 9 -7 18 -14 21 -14 7z"/>
<path d="M1531 4354 c0 -11 3 -14 6 -6 3 7 2 16 -1 19 -3 4 -6 -2 -5 -13z"/>
<path d="M2329 4349 l-24 -20 30 17 c39 24 40 24 28 24 -6 0 -21 -9 -34 -21z"/>
<path d="M2184 4225 c0 -49 1 -71 3 -48 2 23 2 64 0 90 -2 26 -3 8 -3 -42z"/>
<path d="M3161 4294 c0 -11 3 -14 6 -6 3 7 2 16 -1 19 -3 4 -6 -2 -5 -13z"/>
<path d="M1209 4241 c48 -46 117 -92 138 -91 4 1 -12 12 -38 25 -25 13 -70 44
-100 70 l-54 47 54 -51z"/>
<path d="M2294 4200 c0 -52 1 -74 3 -47 2 26 2 68 0 95 -2 26 -3 4 -3 -48z"/>
<path d="M3031 4263 c-10 -26 -10 -27 4 -9 8 11 15 23 15 28 0 15 -7 8 -19
-19z"/>
<path d="M3146 4245 c-9 -26 -7 -32 5 -12 6 10 9 21 6 23 -2 3 -7 -2 -11 -11z"/>
<path d="M1075 4220 c10 -11 20 -20 23 -20 3 0 -3 9 -13 20 -10 11 -20 20 -23
20 -3 0 3 -9 13 -20z"/>
<path d="M1521 4224 c0 -11 3 -14 6 -6 3 7 2 16 -1 19 -3 4 -6 -2 -5 -13z"/>
<path d="M2989 4203 l-24 -28 28 24 c25 23 32 31 24 31 -2 0 -14 -12 -28 -27z"/>
<path d="M3109 4173 c-13 -16 -12 -17 4 -4 9 7 17 15 17 17 0 8 -8 3 -21 -13z"/>
<path d="M1120 4177 c0 -2 15 -16 33 -33 l32 -29 -29 33 c-28 30 -36 37 -36
29z"/>
<path d="M2910 4154 c-24 -13 -38 -24 -30 -24 16 0 80 36 80 45 0 3 -1 4 -2 4
-2 -1 -23 -12 -48 -25z"/>
<path d="M3059 4113 l-34 -38 38 34 c20 19 37 36 37 38 0 8 -8 0 -41 -34z"/>
<path d="M2090 4120 l-95 -6 92 -2 c53 -1 94 2 98 8 3 6 5 9 3 8 -2 -1 -46 -5
-98 -8z"/>
<path d="M2838 4123 c7 -3 16 -2 19 1 4 3 -2 6 -13 5 -11 0 -14 -3 -6 -6z"/>
<path d="M1194 4111 c7 -11 46 -35 46 -28 0 3 -12 12 -26 22 -15 9 -23 12 -20
6z"/>
<path d="M1642 4113 c59 -2 158 -2 220 0 62 1 14 3 -107 3 -121 0 -172 -2
-113 -3z"/>
<path d="M2433 4113 c71 -2 183 -2 250 0 67 1 10 3 -128 3 -137 0 -192 -2
-122 -3z"/>
<path d="M1250 4076 c0 -2 7 -7 16 -10 8 -3 12 -2 9 4 -6 10 -25 14 -25 6z"/>
<path d="M1300 4050 c8 -5 20 -10 25 -10 6 0 3 5 -5 10 -8 5 -19 10 -25 10 -5
0 -3 -5 5 -10z"/>
<path d="M2915 4030 c-13 -6 -15 -9 -5 -9 8 0 22 4 30 9 18 12 2 12 -25 0z"/>
<path d="M1418 4013 c7 -3 16 -2 19 1 4 3 -2 6 -13 5 -11 0 -14 -3 -6 -6z"/>
<path d="M2858 4013 c6 -2 18 -2 25 0 6 3 1 5 -13 5 -14 0 -19 -2 -12 -5z"/>
<path d="M1768 4003 c6 -2 18 -2 25 0 6 3 1 5 -13 5 -14 0 -19 -2 -12 -5z"/>
<path d="M1928 4003 c6 -2 18 -2 25 0 6 3 1 5 -13 5 -14 0 -19 -2 -12 -5z"/>
<path d="M2093 4003 c9 -2 23 -2 30 0 6 3 -1 5 -18 5 -16 0 -22 -2 -12 -5z"/>
<path d="M2263 4003 c15 -2 37 -2 50 0 12 2 0 4 -28 4 -27 0 -38 -2 -22 -4z"/>
</g>
</svg>
