<svg xmlns="http://www.w3.org/2000/svg" width="100" height="100" id="employee-potential">
  <path fill="#B3CCFF" d="m37.845 16.278-1.625-1.602c-5.764 3.776-10.234 9.313-12.458 15.823l14.083-14.221zm48.092 24.93c0-17.316-13.789-31.396-30.972-31.86l-.445 20.058a1.4 1.4 0 0 1-2.382.966l-5.764-5.682L31.79 39.418a1.4 1.4 0 0 1-1.978.011l-6.53-6.45c-.075-.074-.119-.171-.175-.259a28.783 28.783 0 0 0-.862 8.488l-8.181 19.74 9.334 2.879 4.484 19.047 15.63-3.021 5.115 12.644 33.813-9.961-5.737-18.9c5.701-5.759 9.234-13.677 9.234-22.428z"></path>
  <path fill="#FFF" d="M45.367 21.728a1.402 1.402 0 0 1 1.978-.012l4.447 4.385.35-15.747-15.752.557 4.42 4.358a1.404 1.404 0 0 1 .012 1.982l-14.575 14.72 4.538 4.482 14.582-14.725z"></path>
  <path fill="#4080FF" d="M68.611 57.645V28.92H58.332v28.725h-2.654V38.17h-10.28v19.475h-2.654V47.42H32.465v10.225h-3.458v2.792h42.627v-2.792z"></path>
  <path fill="#FFF" d="M58.332 28.92h10.279v5.83H58.332zM45.398 38.17h10.279V44H45.398z"></path>
  <path fill="#494949" d="M30.795 39.833c-.355 0-.711-.135-.983-.404l-6.53-6.45a1.402 1.402 0 0 1-.012-1.981l14.575-14.719-5.734-5.654a1.402 1.402 0 0 1 .934-2.397l20.48-.725c.377.003.759.132 1.033.403.274.271.425.642.416 1.027l-.454 20.473a1.4 1.4 0 0 1-2.382.966l-5.764-5.682L31.79 39.418a1.4 1.4 0 0 1-.995.415zm-4.549-7.861 4.538 4.482 14.583-14.727a1.402 1.402 0 0 1 1.978-.012l4.447 4.385.35-15.747-15.752.558 4.42 4.358a1.404 1.404 0 0 1 .012 1.982L26.246 31.972z"></path>
</svg>
