<svg xmlns="http://www.w3.org/2000/svg" enable-background="new 0 0 24 24" viewBox="0 0 24 24" id="bonus">
  <g id="Layer_2">
    <path fill="#8e8eef" d="M11.07 12.32c.23.54-.02 1.16-.56 1.4-.09.04-.18.06-.28.07-.22.03-.44-.01-.64-.11-.46-.25-.88-.52-1.27-.83-.25-.18-.49-.37-.72-.57-.17-.14-.33-.29-.49-.44-.17.15-.32.3-.49.44-.61.52-1.26 1-2 1.4-.52.27-1.16.07-1.43-.44-.16-.3-.16-.63-.04-.92.33-.77.7599-1.45 1.22-2.1.18-.25.37-.49.56-.73-.68-.85-1.3-1.77-1.78-2.81C2.91 6.15 3.14 5.52 3.67 5.28c.32-.14.67-.11.95.04.93.52 1.74 1.16 2.49 1.85.39-.36.8-.71 1.23-1.03.39-.3.81-.57 1.25-.82C9.71 5.25 9.84 5.21 9.97 5.21 10.39 5.14 10.81 5.34 11.03 5.73c.16.3.17.65.04.95-.3.65-.66 1.26-1.05 1.83C9.79 8.85 9.54 9.17 9.29 9.49c.18.24.36.47.54.72.01 0 .01.01.01.01C10.31 10.87 10.73 11.55 11.07 12.32zM19.77 5.99c-.44-.38-.89-.67-1.4-.87C18.22 5.06 18.06 5 17.89 4.95 17.7 4.9 17.51 4.86 17.29 4.83 17.08 4.8 16.77 4.8 16.7 4.82l-.78.07c-.19.02-.38.05-.57.0699-.05-.3-.23-.56-.5-.71-.11-.06-.23-.11-.37-.12C13.93 4.06 13.43 4.45 13.36 5c-.19 1.5-.24 3-.25 4.5 0 .75.01 1.5.05 2.25.04.75.09 1.5.2 2.25.05.39.33.72.72.83.05.01.09.02.14.03.22.03.44-.01.63-.12.27-.15.46-.42.51-.74.1-.73.15-1.46.19-2.19.12.02.25.03.37.05l.78.07c.07.02.38.02.59-.01.22-.03.41-.07.6-.12.47-.14.89-.33 1.29-.6.2-.1201.4-.27.59-.44.17-.16.36-.35.52-.57.35-.46.63-1.06.65-1.81C20.91 7.25 20.3 6.47 19.77 5.99zM17.84 8.69c-.19.21-.52.41-.79.53l-.17.06c-.04.02.01.03-.18.04l-.78.07C15.81 9.4 15.71 9.42 15.6 9.43c0-.7-.02-1.41-.05-2.12.12.02.25.03.37.05l.78.07c.19.01.14.02.18.04l.17.06c.27.12.6.32.79.53.16.15.21.28.22.32C18.05 8.41 18 8.54 17.84 8.69z"></path>
    <path fill="#a5a5f2" d="M21.32,17.96c-0.12,0.36-0.42,0.62-0.78,0.69c-0.46,0.09-0.93,0.13-1.39,0.14c-0.04,0.42-0.08,0.84-0.15,1.25
		c-0.07,0.44-0.41,0.76-0.83,0.82c-0.1,0.03-0.21,0.03-0.32,0.01c-0.47-0.07-0.81-0.46-0.85-0.91c-0.03-0.43-0.04-0.86-0.04-1.29
		c-0.06-0.01-0.12-0.02-0.18-0.03c-0.41-0.07-0.82-0.15-1.23-0.29c-0.54-0.2-0.83-0.79-0.63-1.33c0.12-0.35,0.42-0.59,0.75-0.67
		c0.42-0.09,0.84-0.12,1.26-0.14C16.98,16.2,17.02,16.2,17.07,16.2c0.03-0.41,0.08-0.83,0.14-1.2401c0.09-0.55,0.6-0.93,1.15-0.84
		c0.47,0.08,0.82,0.47,0.85,0.92c0.03,0.43,0.04,0.86,0.04,1.29c0.47,0.07,0.95,0.17,1.42,0.32C21.21,16.83,21.5,17.42,21.32,17.96z
		"></path>
  </g>
</svg>
